<svg xmlns="http://www.w3.org/2000/svg" xmlns:xlink="http://www.w3.org/1999/xlink" width="1366" zoomAndPan="magnify" viewBox="0 0 1024.5 576" height="768" preserveAspectRatio="xMidYMid meet" version="1.0"><defs><g/><clipPath id="ea705b11b4"><path d="M 218.074219 0.140625 L 793.792969 0.140625 L 793.792969 575.859375 L 218.074219 575.859375 Z M 218.074219 0.140625 " clip-rule="nonzero"/></clipPath><clipPath id="1de76c2dbf"><path d="M 505.933594 0.140625 C 346.953125 0.140625 218.074219 129.019531 218.074219 288 C 218.074219 446.980469 346.953125 575.859375 505.933594 575.859375 C 664.914062 575.859375 793.792969 446.980469 793.792969 288 C 793.792969 129.019531 664.914062 0.140625 505.933594 0.140625 Z M 505.933594 0.140625 " clip-rule="nonzero"/></clipPath></defs><g clip-path="url(#ea705b11b4)"><g clip-path="url(#1de76c2dbf)"><path fill="#f5f9ff" d="M 218.074219 0.140625 L 793.792969 0.140625 L 793.792969 575.859375 L 218.074219 575.859375 Z M 218.074219 0.140625 " fill-opacity="1" fill-rule="nonzero"/></g></g><g fill="#60a5fa" fill-opacity="1"><g transform="translate(272.318524, 336.727452)"><g><path d="M 86.484375 -60.03125 L 69.9375 -60.03125 C 69.457031 -62.738281 68.582031 -65.144531 67.3125 -67.25 C 66.050781 -69.363281 64.476562 -71.15625 62.59375 -72.625 C 60.707031 -74.101562 58.5625 -75.21875 56.15625 -75.96875 C 53.75 -76.71875 51.160156 -77.09375 48.390625 -77.09375 C 43.460938 -77.09375 39.097656 -75.863281 35.296875 -73.40625 C 31.492188 -70.945312 28.515625 -67.347656 26.359375 -62.609375 C 24.210938 -57.878906 23.140625 -52.109375 23.140625 -45.296875 C 23.140625 -38.367188 24.222656 -32.535156 26.390625 -27.796875 C 28.554688 -23.066406 31.53125 -19.5 35.3125 -17.09375 C 39.101562 -14.6875 43.445312 -13.484375 48.34375 -13.484375 C 51.0625 -13.484375 53.601562 -13.84375 55.96875 -14.5625 C 58.34375 -15.289062 60.484375 -16.363281 62.390625 -17.78125 C 64.296875 -19.195312 65.90625 -20.9375 67.21875 -23 C 68.53125 -25.0625 69.4375 -27.421875 69.9375 -30.078125 L 86.484375 -29.984375 C 85.859375 -25.679688 84.519531 -21.640625 82.46875 -17.859375 C 80.425781 -14.085938 77.75 -10.765625 74.4375 -7.890625 C 71.132812 -5.015625 67.269531 -2.773438 62.84375 -1.171875 C 58.425781 0.429688 53.519531 1.234375 48.125 1.234375 C 40.164062 1.234375 33.054688 -0.601562 26.796875 -4.28125 C 20.546875 -7.96875 15.625 -13.289062 12.03125 -20.25 C 8.4375 -27.21875 6.640625 -35.566406 6.640625 -45.296875 C 6.640625 -55.054688 8.453125 -63.40625 12.078125 -70.34375 C 15.703125 -77.289062 20.640625 -82.609375 26.890625 -86.296875 C 33.140625 -89.984375 40.21875 -91.828125 48.125 -91.828125 C 53.164062 -91.828125 57.851562 -91.117188 62.1875 -89.703125 C 66.519531 -88.285156 70.382812 -86.210938 73.78125 -83.484375 C 77.175781 -80.765625 79.96875 -77.4375 82.15625 -73.5 C 84.351562 -69.5625 85.796875 -65.070312 86.484375 -60.03125 Z M 86.484375 -60.03125 "/></g></g></g><g fill="#60a5fa" fill-opacity="1"><g transform="translate(364.946698, 336.727452)"><g><path d="M 8.234375 0 L 8.234375 -67.9375 L 24.234375 -67.9375 L 24.234375 0 Z M 16.28125 -77.59375 C 13.738281 -77.59375 11.550781 -78.4375 9.71875 -80.125 C 7.894531 -81.820312 6.984375 -83.863281 6.984375 -86.25 C 6.984375 -88.675781 7.894531 -90.734375 9.71875 -92.421875 C 11.550781 -94.117188 13.738281 -94.96875 16.28125 -94.96875 C 18.84375 -94.96875 21.03125 -94.117188 22.84375 -92.421875 C 24.65625 -90.734375 25.5625 -88.675781 25.5625 -86.25 C 25.5625 -83.863281 24.65625 -81.820312 22.84375 -80.125 C 21.03125 -78.4375 18.84375 -77.59375 16.28125 -77.59375 Z M 16.28125 -77.59375 "/></g></g></g><g fill="#006fee" fill-opacity="1"><g transform="translate(397.422094, 336.727452)"><g><path d="M 58.171875 -65.6875 C 57.753906 -69.550781 56.019531 -72.554688 52.96875 -74.703125 C 49.914062 -76.859375 45.957031 -77.9375 41.09375 -77.9375 C 37.675781 -77.9375 34.742188 -77.421875 32.296875 -76.390625 C 29.847656 -75.359375 27.972656 -73.957031 26.671875 -72.1875 C 25.378906 -70.414062 24.71875 -68.394531 24.6875 -66.125 C 24.6875 -64.238281 25.117188 -62.601562 25.984375 -61.21875 C 26.859375 -59.832031 28.046875 -58.660156 29.546875 -57.703125 C 31.046875 -56.742188 32.710938 -55.9375 34.546875 -55.28125 C 36.378906 -54.632812 38.222656 -54.09375 40.078125 -53.65625 L 48.5625 -51.53125 C 51.988281 -50.738281 55.285156 -49.660156 58.453125 -48.296875 C 61.617188 -46.941406 64.460938 -45.234375 66.984375 -43.171875 C 69.515625 -41.109375 71.515625 -38.613281 72.984375 -35.6875 C 74.460938 -32.769531 75.203125 -29.351562 75.203125 -25.4375 C 75.203125 -20.125 73.84375 -15.453125 71.125 -11.421875 C 68.414062 -7.398438 64.5 -4.257812 59.375 -2 C 54.257812 0.25 48.078125 1.375 40.828125 1.375 C 33.773438 1.375 27.660156 0.285156 22.484375 -1.890625 C 17.316406 -4.078125 13.28125 -7.265625 10.375 -11.453125 C 7.46875 -15.640625 5.894531 -20.742188 5.65625 -26.765625 L 21.8125 -26.765625 C 22.039062 -23.609375 23.007812 -20.984375 24.71875 -18.890625 C 26.4375 -16.796875 28.671875 -15.234375 31.421875 -14.203125 C 34.179688 -13.171875 37.269531 -12.65625 40.6875 -12.65625 C 44.257812 -12.65625 47.394531 -13.191406 50.09375 -14.265625 C 52.789062 -15.335938 54.90625 -16.835938 56.4375 -18.765625 C 57.976562 -20.703125 58.757812 -22.96875 58.78125 -25.5625 C 58.757812 -27.925781 58.066406 -29.878906 56.703125 -31.421875 C 55.347656 -32.972656 53.453125 -34.269531 51.015625 -35.3125 C 48.585938 -36.363281 45.753906 -37.300781 42.515625 -38.125 L 32.203125 -40.78125 C 24.742188 -42.695312 18.851562 -45.609375 14.53125 -49.515625 C 10.207031 -53.421875 8.046875 -58.617188 8.046875 -65.109375 C 8.046875 -70.453125 9.5 -75.128906 12.40625 -79.140625 C 15.3125 -83.148438 19.269531 -86.265625 24.28125 -88.484375 C 29.289062 -90.710938 34.96875 -91.828125 41.3125 -91.828125 C 47.738281 -91.828125 53.378906 -90.710938 58.234375 -88.484375 C 63.085938 -86.265625 66.898438 -83.1875 69.671875 -79.25 C 72.441406 -75.3125 73.867188 -70.789062 73.953125 -65.6875 Z M 58.171875 -65.6875 "/></g></g></g><g fill="#006fee" fill-opacity="1"><g transform="translate(478.28374, 336.727452)"><g><path d="M 42.15625 -67.9375 L 42.15625 -55.5625 L 3.09375 -55.5625 L 3.09375 -67.9375 Z M 12.734375 -84.21875 L 28.75 -84.21875 L 28.75 -20.4375 C 28.75 -18.28125 29.082031 -16.632812 29.75 -15.5 C 30.414062 -14.363281 31.289062 -13.585938 32.375 -13.171875 C 33.46875 -12.765625 34.675781 -12.5625 36 -12.5625 C 37.007812 -12.5625 37.929688 -12.632812 38.765625 -12.78125 C 39.609375 -12.925781 40.25 -13.0625 40.6875 -13.1875 L 43.390625 -0.65625 C 42.535156 -0.363281 41.316406 -0.0390625 39.734375 0.3125 C 38.160156 0.664062 36.238281 0.867188 33.96875 0.921875 C 29.957031 1.046875 26.34375 0.4375 23.125 -0.90625 C 19.914062 -2.25 17.375 -4.332031 15.5 -7.15625 C 13.625 -9.988281 12.703125 -13.53125 12.734375 -17.78125 Z M 12.734375 -84.21875 "/></g></g></g><g fill="#006fee" fill-opacity="1"><g transform="translate(525.615234, 336.727452)"><g><path d="M 51.53125 -28.578125 L 51.53125 -67.9375 L 67.546875 -67.9375 L 67.546875 0 L 52.015625 0 L 52.015625 -12.078125 L 51.3125 -12.078125 C 49.78125 -8.273438 47.265625 -5.160156 43.765625 -2.734375 C 40.273438 -0.316406 35.976562 0.890625 30.875 0.890625 C 26.425781 0.890625 22.5 -0.101562 19.09375 -2.09375 C 15.6875 -4.09375 13.023438 -7 11.109375 -10.8125 C 9.191406 -14.632812 8.234375 -19.257812 8.234375 -24.6875 L 8.234375 -67.9375 L 24.234375 -67.9375 L 24.234375 -27.15625 C 24.234375 -22.851562 25.410156 -19.429688 27.765625 -16.890625 C 30.128906 -14.359375 33.226562 -13.09375 37.0625 -13.09375 C 39.425781 -13.09375 41.710938 -13.664062 43.921875 -14.8125 C 46.128906 -15.96875 47.945312 -17.6875 49.375 -19.96875 C 50.8125 -22.257812 51.53125 -25.128906 51.53125 -28.578125 Z M 51.53125 -28.578125 "/></g></g></g><g fill="#006fee" fill-opacity="1"><g transform="translate(601.389856, 336.727452)"><g><path d="M 33.4375 1.1875 C 28.101562 1.1875 23.328125 -0.179688 19.109375 -2.921875 C 14.890625 -5.660156 11.554688 -9.640625 9.109375 -14.859375 C 6.660156 -20.078125 5.4375 -26.421875 5.4375 -33.890625 C 5.4375 -41.429688 6.679688 -47.804688 9.171875 -53.015625 C 11.671875 -58.222656 15.039062 -62.160156 19.28125 -64.828125 C 23.53125 -67.492188 28.265625 -68.828125 33.484375 -68.828125 C 37.460938 -68.828125 40.734375 -68.15625 43.296875 -66.8125 C 45.867188 -65.46875 47.90625 -63.859375 49.40625 -61.984375 C 50.914062 -60.117188 52.082031 -58.359375 52.90625 -56.703125 L 53.5625 -56.703125 L 53.5625 -90.59375 L 69.625 -90.59375 L 69.625 0 L 53.875 0 L 53.875 -10.703125 L 52.90625 -10.703125 C 52.082031 -9.054688 50.882812 -7.3125 49.3125 -5.46875 C 47.75 -3.625 45.6875 -2.050781 43.125 -0.75 C 40.5625 0.539062 37.332031 1.1875 33.4375 1.1875 Z M 37.90625 -11.9375 C 41.300781 -11.9375 44.191406 -12.859375 46.578125 -14.703125 C 48.960938 -16.546875 50.773438 -19.117188 52.015625 -22.421875 C 53.253906 -25.722656 53.875 -29.570312 53.875 -33.96875 C 53.875 -38.363281 53.257812 -42.179688 52.03125 -45.421875 C 50.8125 -48.671875 49.015625 -51.191406 46.640625 -52.984375 C 44.265625 -54.785156 41.351562 -55.6875 37.90625 -55.6875 C 34.34375 -55.6875 31.363281 -54.753906 28.96875 -52.890625 C 26.582031 -51.035156 24.785156 -48.472656 23.578125 -45.203125 C 22.367188 -41.929688 21.765625 -38.1875 21.765625 -33.96875 C 21.765625 -29.726562 22.375 -25.945312 23.59375 -22.625 C 24.820312 -19.3125 26.632812 -16.703125 29.03125 -14.796875 C 31.4375 -12.890625 34.394531 -11.9375 37.90625 -11.9375 Z M 37.90625 -11.9375 "/></g></g></g><g fill="#006fee" fill-opacity="1"><g transform="translate(679.907056, 336.727452)"><g><path d="M 18.1875 25.484375 C 16 25.484375 13.984375 25.3125 12.140625 24.96875 C 10.296875 24.632812 8.828125 24.242188 7.734375 23.796875 L 11.453125 11.328125 C 13.785156 12.003906 15.863281 12.328125 17.6875 12.296875 C 19.519531 12.265625 21.132812 11.695312 22.53125 10.59375 C 23.9375 9.488281 25.125 7.65625 26.09375 5.09375 L 27.46875 1.421875 L 2.828125 -67.9375 L 19.8125 -67.9375 L 35.46875 -16.625 L 36.1875 -16.625 L 51.890625 -67.9375 L 68.921875 -67.9375 L 41.71875 8.234375 C 40.445312 11.828125 38.765625 14.910156 36.671875 17.484375 C 34.578125 20.066406 32.019531 22.046875 29 23.421875 C 25.976562 24.796875 22.375 25.484375 18.1875 25.484375 Z M 18.1875 25.484375 "/></g></g></g></svg>